REM DIRINDEX 1\2,1\3,1\4,1\5
REM DIRNAME cjc044,folder01,folder02,folder03,folder04
TITLE ""
FILE "1800_070.mp3" MP3
  TRACK 01 AUDIO
    TITLE "2:cjc044_1753"
    INDEX 01 00:00:00
  TRACK 02 AUDIO
    TITLE "0:"
    INDEX 01 00:01:19
  TRACK 03 AUDIO
    TITLE "3:cjc044_1754"
    INDEX 01 00:02:02
  TRACK 04 AUDIO
    TITLE "0:"
    INDEX 01 00:03:21
  TRACK 05 AUDIO
    TITLE "4:cjc044_1755"
    INDEX 01 00:04:05
  TRACK 06 AUDIO
    TITLE "0:"
    INDEX 01 00:05:34
  TRACK 07 AUDIO
    TITLE "5:cjc044_1756"
    INDEX 01 00:06:14
  TRACK 08 AUDIO
    TITLE "0:"
    INDEX 01 00:10:23
  TRACK 09 AUDIO
    TITLE "2:cjc044_1757"
    INDEX 01 00:12:07
  TRACK 10 AUDIO
    TITLE "0:"
    INDEX 01 00:13:33
  TRACK 11 AUDIO
    TITLE "3:cjc044_1758"
    INDEX 01 00:14:15
  TRACK 12 AUDIO
    TITLE "0:"
    INDEX 01 00:15:25
  TRACK 13 AUDIO
    TITLE "4:cjc044_1759"
    INDEX 01 00:16:12
  TRACK 14 AUDIO
    TITLE "0:"
    INDEX 01 00:17:37
  TRACK 15 AUDIO
    TITLE "5:cjc044_1760"
    INDEX 01 00:18:19
  TRACK 16 AUDIO
    TITLE "0:"
    INDEX 01 00:22:36
  TRACK 17 AUDIO
    TITLE "2:cjc044_1761"
    INDEX 01 00:24:18
  TRACK 18 AUDIO
    TITLE "0:"
    INDEX 01 00:25:19
  TRACK 19 AUDIO
    TITLE "3:cjc044_1762"
    INDEX 01 00:26:01
  TRACK 20 AUDIO
    TITLE "0:"
    INDEX 01 00:26:71
  TRACK 21 AUDIO
    TITLE "4:cjc044_1763"
    INDEX 01 00:27:57
  TRACK 22 AUDIO
    TITLE "0:"
    INDEX 01 00:28:59
  TRACK 23 AUDIO
    TITLE "5:cjc044_1764"
    INDEX 01 00:29:34
  TRACK 24 AUDIO
    TITLE "0:"
    INDEX 01 00:32:62
  TRACK 25 AUDIO
    TITLE "2:cjc044_1765"
    INDEX 01 00:34:49
  TRACK 26 AUDIO
    TITLE "0:"
    INDEX 01 00:35:74
  TRACK 27 AUDIO
    TITLE "3:cjc044_1766"
    INDEX 01 00:36:56
  TRACK 28 AUDIO
    TITLE "0:"
    INDEX 01 00:37:46
  TRACK 29 AUDIO
    TITLE "4:cjc044_1767"
    INDEX 01 00:38:35
  TRACK 30 AUDIO
    TITLE "0:"
    INDEX 01 00:39:58
  TRACK 31 AUDIO
    TITLE "5:cjc044_1768"
    INDEX 01 00:40:26
  TRACK 32 AUDIO
    TITLE "0:"
    INDEX 01 00:44:52
  TRACK 33 AUDIO
    TITLE "2:cjc044_1769"
    INDEX 01 00:46:39
  TRACK 34 AUDIO
    TITLE "0:"
    INDEX 01 00:47:74
  TRACK 35 AUDIO
    TITLE "3:cjc044_1770"
    INDEX 01 00:48:57
  TRACK 36 AUDIO
    TITLE "0:"
    INDEX 01 00:49:61
  TRACK 37 AUDIO
    TITLE "4:cjc044_1771"
    INDEX 01 00:50:44
  TRACK 38 AUDIO
    TITLE "0:"
    INDEX 01 00:52:04
  TRACK 39 AUDIO
    TITLE "5:cjc044_1772"
    INDEX 01 00:52:51
  TRACK 40 AUDIO
    TITLE "0:"
    INDEX 01 00:56:10
  TRACK 41 AUDIO
    TITLE "2:cjc044_1773"
    INDEX 01 00:57:66
  TRACK 42 AUDIO
    TITLE "0:"
    INDEX 01 00:59:04
  TRACK 43 AUDIO
    TITLE "3:cjc044_1774"
    INDEX 01 00:59:59
  TRACK 44 AUDIO
    TITLE "0:"
    INDEX 01 01:00:59
  TRACK 45 AUDIO
    TITLE "4:cjc044_1775"
    INDEX 01 01:01:38
  TRACK 46 AUDIO
    TITLE "0:"
    INDEX 01 01:02:54
  TRACK 47 AUDIO
    TITLE "5:cjc044_1776"
    INDEX 01 01:03:31
  TRACK 48 AUDIO
    TITLE "0:"
    INDEX 01 01:07:35
  TRACK 49 AUDIO
    TITLE "2:cjc044_1777"
    INDEX 01 01:09:16
  TRACK 50 AUDIO
    TITLE "0:"
    INDEX 01 01:10:37
  TRACK 51 AUDIO
    TITLE "3:cjc044_1778"
    INDEX 01 01:11:23
  TRACK 52 AUDIO
    TITLE "0:"
    INDEX 01 01:12:28
  TRACK 53 AUDIO
    TITLE "4:cjc044_1779"
    INDEX 01 01:13:16
  TRACK 54 AUDIO
    TITLE "0:"
    INDEX 01 01:14:37
  TRACK 55 AUDIO
    TITLE "5:cjc044_1780"
    INDEX 01 01:15:11
  TRACK 56 AUDIO
    TITLE "0:"
    INDEX 01 01:19:19
  TRACK 57 AUDIO
    TITLE "2:cjc044_1781"
    INDEX 01 01:21:06
  TRACK 58 AUDIO
    TITLE "0:"
    INDEX 01 01:22:70
  TRACK 59 AUDIO
    TITLE "3:cjc044_1782"
    INDEX 01 01:23:52
  TRACK 60 AUDIO
    TITLE "0:"
    INDEX 01 01:25:09
  TRACK 61 AUDIO
    TITLE "4:cjc044_1783"
    INDEX 01 01:25:68
  TRACK 62 AUDIO
    TITLE "0:"
    INDEX 01 01:27:59
  TRACK 63 AUDIO
    TITLE "5:cjc044_1784"
    INDEX 01 01:28:33
  TRACK 64 AUDIO
    TITLE "0:"
    INDEX 01 01:32:31
  TRACK 65 AUDIO
    TITLE "2:cjc044_1785"
    INDEX 01 01:34:12
  TRACK 66 AUDIO
    TITLE "0:"
    INDEX 01 01:35:61
  TRACK 67 AUDIO
    TITLE "3:cjc044_1786"
    INDEX 01 01:36:41
  TRACK 68 AUDIO
    TITLE "0:"
    INDEX 01 01:37:58
  TRACK 69 AUDIO
    TITLE "4:cjc044_1787"
    INDEX 01 01:38:32
  TRACK 70 AUDIO
    TITLE "0:"
    INDEX 01 01:40:07
  TRACK 71 AUDIO
    TITLE "5:cjc044_1788"
    INDEX 01 01:40:62
  TRACK 72 AUDIO
    TITLE "0:"
    INDEX 01 01:44:26
